<svg width="187" height="187" viewBox="0 0 187 187" fill="none" xmlns="http://www.w3.org/2000/svg">
<mask id="mask0_34_58" style="mask-type:luminance" maskUnits="userSpaceOnUse" x="14" y="4" width="159" height="178">
<path d="M14.0747 4.78296H172.462V181.733H14.0747V4.78296Z" fill="white"/>
</mask>
<g mask="url(#mask0_34_58)">
<path d="M172.439 4.78271H14.0986L28.0696 163.107L93.2686 181.733L158.468 163.107L172.439 4.78271Z" fill="#0277BD"/>
</g>
<path d="M93.2705 18.7557V167.3L145.429 152.399L157.072 18.7557H93.2705Z" fill="#039BE5"/>
<path d="M135.65 42.0378H93.2705V60.664H116.09L114.693 79.2901H93.2705V97.9168H113.762L112.365 118.871L93.2705 125.39V144.948L130.061 132.841L133.321 79.2901L135.65 42.0378Z" fill="white"/>
<path d="M93.2704 42.0378V60.664H51.8225L50.4253 42.0378H93.2704ZM71.8479 79.2901L72.7792 97.9168H93.2704V79.2901H71.8479ZM73.7105 107.23H55.0824L56.4797 132.841L93.2704 144.948V125.39L74.1764 118.871L73.7105 107.23Z" fill="#EEEEEE"/>
</svg>
