<svg width="100" height="100" viewBox="0 0 100 100" fill="none" xmlns="http://www.w3.org/2000/svg">
<path d="M33.3332 99.9998C42.5332 99.9998 49.9998 92.5332 49.9998 83.3332V66.6665H33.3332C24.1332 66.6665 16.6665 74.1332 16.6665 83.3332C16.6665 92.5332 24.1332 99.9998 33.3332 99.9998Z" fill="#0ACF83"/>
<path d="M16.6665 50.0002C16.6665 40.8002 24.1332 33.3335 33.3332 33.3335H49.9998V66.6668H33.3332C24.1332 66.6668 16.6665 59.2002 16.6665 50.0002Z" fill="#A259FF"/>
<path d="M16.6665 16.6667C16.6665 7.46667 24.1332 0 33.3332 0H49.9998V33.3333H33.3332C24.1332 33.3333 16.6665 25.8667 16.6665 16.6667Z" fill="#F24E1E"/>
<path d="M50 0H66.6667C75.8667 0 83.3333 7.46667 83.3333 16.6667C83.3333 25.8667 75.8667 33.3333 66.6667 33.3333H50V0Z" fill="#FF7262"/>
<path d="M83.3333 50.0002C83.3333 59.2002 75.8667 66.6668 66.6667 66.6668C57.4667 66.6668 50 59.2002 50 50.0002C50 40.8002 57.4667 33.3335 66.6667 33.3335C75.8667 33.3335 83.3333 40.8002 83.3333 50.0002Z" fill="#1ABCFE"/>
</svg>
