<svg width="100" height="100" viewBox="0 0 100 100" fill="none" xmlns="http://www.w3.org/2000/svg">
<g clip-path="url(#clip0_1_119)">
<path d="M97.4545 45.608L54.3944 2.5502C51.9162 0.0705079 47.8944 0.0705079 45.4123 2.5502L36.4725 11.4924L47.8147 22.8346C50.4514 21.9447 53.4733 22.5416 55.574 24.6424C57.6858 26.7564 58.2787 29.8041 57.3654 32.4494L68.2967 43.3822C70.9412 42.4705 73.9936 43.0596 76.1045 45.1752C79.0576 48.126 79.0576 52.9096 76.1045 55.8619C73.1514 58.815 68.3694 58.815 65.4147 55.8619C63.1944 53.64 62.6451 50.3783 63.7701 47.6424L53.5764 37.4479L53.5748 64.2768C54.2951 64.6322 54.974 65.1072 55.574 65.7049C58.5264 68.6557 58.5264 73.4377 55.574 76.3947C52.6217 79.3455 47.8365 79.3455 44.8873 76.3947C41.9358 73.4385 41.6936 68.6564 44.6444 65.7049C45.374 64.976 46.0936 64.4252 46.8748 64.0564V36.9791C46.0936 36.6104 45.3748 36.0635 44.6436 35.3299C42.4084 33.0955 41.9904 29.8143 43.1373 27.0674L32.0178 15.8854L2.52248 45.4088C0.0420106 47.8908 0.0576356 51.9127 2.5381 54.3932L45.6053 97.451C48.0842 99.9307 52.1092 99.9307 54.592 97.451L97.4514 54.5932C99.9319 52.1119 99.9342 48.0877 97.4545 45.608Z" fill="#F34F29"/>
</g>
<defs>
<clipPath id="clip0_1_119">
<rect width="100" height="100" fill="white"/>
</clipPath>
</defs>
</svg>
