<svg width="187" height="187" viewBox="0 0 187 187" fill="none" xmlns="http://www.w3.org/2000/svg">
<mask id="mask0_34_74" style="mask-type:luminance" maskUnits="userSpaceOnUse" x="14" y="4" width="158" height="179">
<path d="M14.7598 4.10223H171.841V182.451H14.7598V4.10223Z" fill="white"/>
</mask>
<g mask="url(#mask0_34_74)">
<path d="M29.0191 164.565L14.7148 4.18457H171.885L157.57 164.543L93.1998 182.373L29.0191 164.565Z" fill="#E44D26"/>
</g>
<path d="M145.31 154.332L157.548 17.3001H93.3008V168.749L145.31 154.332Z" fill="#F16529"/>
<path d="M93.2336 36.9684H43.959L49.2676 96.4516H93.3006V76.7834H67.2651L65.4656 56.642H93.3006V36.9684H93.2336ZM93.3006 127.803L93.217 127.825L71.3033 121.911L69.9109 106.225H50.1475L52.905 137.108L93.2112 148.245L93.3006 148.217V127.803Z" fill="#EBEBEB"/>
<path d="M93.2338 96.4516H117.464L115.236 121.956L93.2897 127.875V148.339L133.629 137.164L139.033 76.7722H93.3009L93.2338 96.4516ZM142.052 42.2474L142.52 36.9684H93.2227V56.6361H140.748L141.138 52.2151L142.052 42.2474Z" fill="white"/>
</svg>
