<svg width="187" height="187" viewBox="0 0 187 187" fill="none" xmlns="http://www.w3.org/2000/svg">
<path d="M77.5706 98.6637C77.5706 98.6637 72.876 101.52 80.8358 102.337C90.4285 103.561 95.5307 103.357 106.143 101.317C106.143 101.317 109 103.153 112.878 104.582C88.9997 114.785 58.7929 103.969 77.5711 98.6637H77.5706ZM74.5094 85.3997C74.5094 85.3997 69.4072 89.2766 77.3665 90.0937C87.7754 91.114 95.9392 91.3175 110.021 88.4609C110.021 88.4609 111.858 90.5013 114.919 91.5216C86.1425 100.093 53.8943 92.3378 74.5084 85.4001L74.5094 85.3997ZM130.84 108.661C130.84 108.661 134.309 111.517 126.962 113.762C113.287 117.844 69.6132 119.068 57.366 113.762C53.08 111.926 61.2439 109.273 63.8965 108.865C66.5496 108.253 67.9784 108.253 67.9784 108.253C63.2848 104.988 36.7523 114.987 54.5084 117.844C103.285 125.802 143.492 114.375 130.839 108.66L130.84 108.661ZM79.8171 71.5215C79.8171 71.5215 57.5715 76.8267 71.8578 78.6637C77.9806 79.4799 90.0219 79.2758 101.247 78.4591C110.431 77.6429 119.615 76.0101 119.615 76.0101C119.615 76.0101 116.35 77.4384 114.104 78.8667C91.4507 84.7846 47.9803 82.1315 60.4282 76.0101C71.0406 70.9084 79.8166 71.5205 79.8166 71.5205L79.8171 71.5215ZM119.615 93.7642C142.472 81.9284 131.86 70.5013 124.513 71.9296C122.676 72.3372 121.86 72.7453 121.86 72.7453C121.86 72.7453 122.472 71.521 123.9 71.1129C138.39 66.0113 149.82 86.417 119.206 94.3758C119.206 94.3758 119.411 94.1713 119.615 93.7637V93.7642ZM82.0616 126.006C104.103 127.434 137.774 125.19 138.596 114.783C138.596 114.783 136.963 118.864 120.432 121.925C101.656 125.394 78.3902 124.985 64.7195 122.741C64.7195 122.741 67.5766 125.19 82.0669 126.006L82.0616 126.006Z" fill="#4E7896"/>
<mask id="mask0_308_681" style="mask-type:luminance" maskUnits="userSpaceOnUse" x="45" y="4" width="92" height="179">
<path d="M45.8909 4.17969H136.434V182.328H45.8909V4.17969Z" fill="white"/>
</mask>
<g mask="url(#mask0_308_681)">
<path d="M105.733 4.17969C105.733 4.17969 118.387 17.0352 93.6921 36.4211C73.8956 52.1343 89.2021 61.1133 93.6921 71.3162C82.059 60.9088 73.6911 51.7262 79.4059 43.1557C87.7748 30.5038 110.838 24.3857 105.735 4.17969H105.733ZM99.2068 62.7467C105.125 69.4807 97.5739 75.6031 97.5739 75.6031C97.5739 75.6031 112.676 67.8488 105.737 58.2576C99.4103 49.075 94.5122 44.586 121.044 29.2848C121.044 29.2848 79.2057 39.6922 99.2058 62.7511L99.2068 62.7467ZM84.1009 172.326V152.327C84.1009 147.225 81.2438 143.756 74.1007 143.756C70.0187 143.756 66.5495 144.777 63.4878 145.997L64.5085 149.67C66.7496 148.854 69.6106 148.038 72.6723 148.038C76.5502 148.038 78.3866 149.67 78.3866 152.936V155.588H76.3462C66.5495 155.588 62.0594 159.262 62.0594 165.179C62.0594 170.077 65.1206 172.934 70.6314 172.934C74.1012 172.934 76.7543 171.301 79.2038 169.26L79.6119 172.321H84.1019L84.1009 172.326ZM78.3862 165.796C76.3457 167.632 74.1007 168.653 72.0592 168.653C69.4061 168.653 67.7737 167.02 67.7737 164.163C67.7737 161.306 69.4066 159.266 75.9371 159.266H78.3866V165.791L78.3862 165.796ZM103.286 172.326H96.1427L87.5717 144.369H93.6946L99.0008 161.51L100.225 166.611C102.878 159.265 104.92 151.715 105.736 144.369H111.858C110.225 153.552 107.368 163.551 103.287 172.326H103.286ZM136.348 172.326V152.327C136.348 147.225 133.491 143.756 126.348 143.756C122.266 143.756 118.796 144.777 115.735 145.997L116.551 149.67C119.001 148.854 121.858 148.038 124.919 148.038C128.797 148.038 130.633 149.67 130.633 152.936V155.588H128.593C118.797 155.588 114.307 159.262 114.307 165.179C114.307 170.077 117.164 172.934 122.674 172.934C126.348 172.934 129.001 171.301 131.45 169.26L131.858 172.321H136.348V172.326ZM130.633 165.796C128.593 167.632 126.348 168.653 124.307 168.653C121.653 168.653 120.021 167.02 120.021 164.163C120.021 161.306 121.654 159.266 128.184 159.266H130.634V165.791L130.633 165.796ZM55.734 177.019C54.1011 179.469 51.652 181.304 48.5904 182.325L45.9358 179.062C47.9763 177.838 50.0177 176.001 50.8339 174.368C51.6501 172.94 51.8546 170.899 51.8546 166.206V134.372H57.9775V165.798C57.9775 172.123 57.3654 174.573 55.7364 177.022L55.734 177.019Z" fill="#F58219"/>
</g>
</svg>
