<svg width="100" height="100" viewBox="0 0 100 100" fill="none" xmlns="http://www.w3.org/2000/svg">
<rect width="74" height="56" transform="translate(20 38)" fill="#2F2F2F"/>
<path d="M1.2002 2.09375V99.8937H99.0002V2.09375H1.2002ZM52.2439 85.7562C50.8033 88.6844 48.0502 90.6094 44.8627 91.5375C39.9627 92.6625 35.2783 92.0219 31.7908 89.9281C29.4564 88.4969 27.6346 86.2937 26.4002 83.7562C28.8814 82.2406 31.3564 80.7156 33.8377 79.2C33.9033 79.2281 34.0971 79.5812 34.3596 80.0375C35.3064 81.6281 36.1252 82.7531 37.7346 83.5406C39.3158 84.0781 42.7814 84.425 44.1221 81.6437C44.9408 80.2312 44.6783 75.5937 44.6783 70.5656C44.6783 62.6625 44.7158 54.8906 44.7158 46.8906H53.8627C53.8627 55.2906 53.9096 63.7125 53.8627 72.1C53.8814 77.2406 54.3283 81.9156 52.2439 85.7562ZM90.1939 83.1719C87.0158 94.05 69.2846 94.4031 62.2033 87.2156C60.7064 85.525 59.7689 84.6406 58.8752 82.6875C62.6408 80.5219 62.6408 80.5219 66.3033 78.4031C68.2939 81.4625 70.1346 83.1438 73.4439 83.8313C77.9346 84.3781 82.4533 82.8375 81.4408 78.0687C80.4002 74.1719 72.2471 73.225 66.6971 69.0594C61.0627 65.275 59.7439 56.0812 64.3721 50.8281C65.9158 48.8844 68.5471 47.4344 71.3064 46.7375L74.1877 46.3656C79.7189 46.2531 83.1783 47.7125 85.7158 50.55C86.4221 51.2656 86.9971 52.0375 88.0783 53.7125C85.1314 55.5906 85.1408 55.5719 80.9189 58.3063C80.0158 56.3625 78.5221 55.1437 76.9408 54.6156C74.4877 53.8719 71.3908 54.6812 70.7502 57.275C70.5283 58.075 70.5752 58.8187 70.9283 60.1375C71.9221 62.4062 75.2596 63.3906 78.2533 64.7656C86.8721 68.2625 89.7814 72.0062 90.4971 76.4688C91.1846 80.3094 90.3283 82.8 90.2002 83.1719H90.1939Z" fill="#F0DB4F"/>
</svg>
