<svg width="187" height="187" viewBox="0 0 187 187" fill="none" xmlns="http://www.w3.org/2000/svg">
<mask id="mask0_34_67" style="mask-type:luminance" maskUnits="userSpaceOnUse" x="5" y="5" width="176" height="176">
<path d="M5.7124 5.71277H180.89V180.891H5.7124V5.71277Z" fill="white"/>
</mask>
<g mask="url(#mask0_34_67)">
<path d="M5.7124 5.71277H180.89V180.891H5.7124V5.71277Z" fill="#FFD600"/>
</g>
<path d="M120.25 136.837C123.617 142.307 127.276 147.547 135.027 147.547C141.538 147.547 144.954 144.312 144.954 139.835C144.954 134.477 141.421 132.575 134.259 129.455L130.332 127.781C118.999 122.974 111.461 116.95 111.461 104.225C111.461 92.4976 120.439 83.5735 134.468 83.5735C144.458 83.5735 151.635 87.033 156.813 96.0937L144.58 103.914C141.889 99.1059 138.979 97.2131 134.468 97.2131C129.865 97.2131 126.95 100.118 126.95 103.914C126.95 108.604 129.869 110.502 136.609 113.407L140.536 115.081C153.893 120.769 161.426 126.579 161.426 139.64C161.426 153.713 150.312 161.425 135.392 161.425C120.799 161.425 112.512 154.102 107.899 145.036L120.25 136.837ZM63.8712 137.236C66.3334 141.645 70.0757 145.036 75.4572 145.036C80.6055 145.036 83.5691 143.002 83.5691 135.095V83.5686H99.7874V137.587C99.7874 153.97 90.2842 161.425 76.406 161.425C63.8663 161.425 54.8154 152.929 51.127 145.036L63.8712 137.236Z" fill="#000001"/>
</svg>
