<svg width="100" height="100" viewBox="0 0 100 100" fill="none" xmlns="http://www.w3.org/2000/svg">
<g clip-path="url(#clip0_1_121)">
<path d="M52.2748 100L49.6123 99.0917C49.6123 99.0917 49.9373 85.5208 45.0665 84.5458C41.8206 80.7792 45.5873 -75.1958 57.2748 84.025C57.2748 84.025 53.2498 86.0375 52.5331 89.4792C51.7581 92.8583 52.2748 100 52.2748 100Z" fill="white"/>
<path d="M52.2748 100L49.6123 99.0917C49.6123 99.0917 49.9373 85.5208 45.0665 84.5458C41.8206 80.7792 45.5873 -75.1958 57.2748 84.025C57.2748 84.025 53.2498 86.0375 52.5331 89.4792C51.7581 92.8583 52.2748 100 52.2748 100Z" fill="#A6A385"/>
<path d="M53.7042 86.8835C53.7042 86.8835 77.0167 71.5585 71.5625 39.6752C66.3042 16.496 53.9 8.89603 52.5375 5.9752C51.0459 3.89603 49.6167 0.262695 49.6167 0.262695L50.5917 64.7419C50.5875 64.8044 48.575 84.4794 53.7042 86.8835Z" fill="white"/>
<path d="M53.7042 86.8835C53.7042 86.8835 77.0167 71.5585 71.5625 39.6752C66.3042 16.496 53.9 8.89603 52.5375 5.9752C51.0459 3.89603 49.6167 0.262695 49.6167 0.262695L50.5917 64.7419C50.5875 64.8044 48.575 84.4794 53.7042 86.8835Z" fill="#499D4A"/>
<path d="M48.2499 87.725C48.2499 87.725 26.3665 72.7917 27.6665 46.4917C28.8999 20.1917 44.3541 7.27083 47.3416 4.93333C49.2915 2.85833 49.354 2.07917 49.4832 0C50.8457 2.92083 50.5874 43.7 50.7832 48.5042C51.3665 67.0125 49.7457 84.2208 48.2499 87.725Z" fill="white"/>
<path d="M48.2499 87.725C48.2499 87.725 26.3665 72.7917 27.6665 46.4917C28.8999 20.1917 44.3541 7.27083 47.3416 4.93333C49.2915 2.85833 49.354 2.07917 49.4832 0C50.8457 2.92083 50.5874 43.7 50.7832 48.5042C51.3665 67.0125 49.7457 84.2208 48.2499 87.725Z" fill="#58AA50"/>
</g>
<defs>
<clipPath id="clip0_1_121">
<rect width="100" height="100" fill="white"/>
</clipPath>
</defs>
</svg>
