<svg width="100" height="100" viewBox="0 0 100 100" fill="none" xmlns="http://www.w3.org/2000/svg">
<path d="M46.9839 80.9998C46.662 80.9998 46.3613 80.9083 46.0821 80.7481L43.2262 78.9402C42.7966 78.6883 43.0114 78.5968 43.1403 78.551C43.72 78.3451 43.8274 78.2992 44.4287 77.9332C44.4931 77.8873 44.5792 77.9102 44.6434 77.956L46.8338 79.352C46.9197 79.3978 47.027 79.3978 47.0913 79.352L55.6594 74.0652C55.7453 74.0195 55.7884 73.9278 55.7884 73.8136V63.2629C55.7884 63.1483 55.7453 63.057 55.6594 63.011L47.0913 57.7472C47.0055 57.7013 46.8981 57.7013 46.8338 57.7472L38.2657 63.011C38.1799 63.0568 38.1368 63.1712 38.1368 63.2627V73.8134C38.1368 73.905 38.1799 74.0193 38.2657 74.0652L40.6064 75.507C41.8734 76.1936 42.6678 75.3926 42.6678 74.5916V64.1782C42.6678 64.041 42.7752 63.9035 42.9255 63.9035H44.0206C44.1496 63.9035 44.2783 64.018 44.2783 64.1782V74.5916C44.2783 76.3995 43.3549 77.4524 41.7444 77.4524C41.2506 77.4524 40.8641 77.4524 39.7688 76.8801L37.5142 75.507C36.9558 75.1639 36.6123 74.5229 36.6123 73.8363V63.2857C36.6123 62.5992 36.9558 61.9582 37.5142 61.615L46.0821 56.3282C46.619 56.0078 47.3492 56.0078 47.886 56.3282L56.4539 61.615C57.0122 61.9582 57.3559 62.5992 57.3559 63.2857V73.8363C57.3559 74.5229 57.0122 75.1639 56.4539 75.507L47.886 80.7938C47.6067 80.9313 47.2846 80.9998 46.9839 80.9998ZM49.6252 73.7448C45.8675 73.7448 45.0944 71.9139 45.0944 70.3577C45.0944 70.2202 45.2018 70.083 45.3521 70.083H46.4687C46.5975 70.083 46.7049 70.1745 46.7049 70.3119C46.8767 71.5248 47.3706 72.1199 49.6468 72.1199C51.4505 72.1199 52.2238 71.685 52.2238 70.6551C52.2238 70.06 52.0089 69.6254 49.1959 69.3278C46.8552 69.0759 45.395 68.5268 45.395 66.5356C45.395 64.6818 46.8554 63.5831 49.3033 63.5831C52.0518 63.5831 53.4048 64.5903 53.5766 66.7871C53.5766 66.856 53.5551 66.9246 53.5122 66.9933C53.469 67.039 53.4048 67.0848 53.3403 67.0848H52.2236C52.1162 67.0848 52.0089 66.9933 51.9875 66.8788C51.7298 65.6202 51.0641 65.2081 49.3033 65.2081C47.3277 65.2081 47.0913 65.9406 47.0913 66.4897C47.0913 67.1535 47.3706 67.3594 50.0333 67.7256C52.6746 68.0919 53.9202 68.6182 53.9202 70.5864C53.8986 72.6005 52.3526 73.7448 49.6252 73.7448Z" fill="#539E43"/>
<path d="M20.4001 39.7354C20.4001 39.3235 20.1853 38.9342 19.8418 38.7282L10.7369 33.144C10.5864 33.0523 10.4147 33.0066 10.2431 32.9836H10.157C9.98536 32.9836 9.8135 33.0523 9.66319 33.144L0.558324 38.7282C0.214597 38.9342 0 39.3233 0 39.7354L0.0215526 54.7488C0.0215526 54.9548 0.128944 55.1607 0.300622 55.2524C0.472485 55.3668 0.687082 55.3668 0.837579 55.2524L6.24896 51.9567C6.5925 51.7508 6.80728 51.3616 6.80728 50.9498V43.9235C6.80728 43.5116 7.02188 43.1225 7.3656 42.9166L9.66319 41.4976C9.83505 41.3831 10.0283 41.3372 10.2215 41.3372C10.4147 41.3372 10.608 41.3831 10.7585 41.4976L13.056 42.9166C13.3998 43.1225 13.6144 43.5114 13.6144 43.9235V50.9498C13.6144 51.3616 13.8292 51.7508 14.1727 51.9567L19.5841 55.2524C19.7559 55.3668 19.9705 55.3668 20.1424 55.2524C20.3143 55.1607 20.4217 54.9548 20.4217 54.7488L20.4001 39.7354ZM64.1636 19.0688C63.9919 18.9771 63.7771 18.9771 63.6266 19.0688C63.455 19.1832 63.3476 19.3662 63.3476 19.5721V34.4486C63.3476 34.5858 63.2833 34.723 63.1543 34.8147C63.0256 34.8832 62.8966 34.8832 62.7679 34.8147L60.4917 33.4186C60.3248 33.3174 60.1361 33.2641 59.944 33.2641C59.752 33.2641 59.5633 33.3174 59.3964 33.4186L50.2915 39.0258C49.948 39.2318 49.7332 39.6209 49.7332 40.0328V51.2242C49.7332 51.6361 49.948 52.0254 50.2915 52.2314L59.3964 57.8386C59.5633 57.9398 59.752 57.9931 59.944 57.9931C60.1361 57.9931 60.3248 57.9398 60.4917 57.8386L69.5965 52.2314C69.9401 52.0254 70.1549 51.6363 70.1549 51.2242V23.3256C70.1549 22.8908 69.9401 22.5019 69.5965 22.2957L64.1636 19.0688ZM63.3262 47.5396C63.3262 47.6541 63.2833 47.7456 63.1973 47.7913L60.0837 49.7137C60.0402 49.7363 59.9924 49.7481 59.944 49.7481C59.8956 49.7481 59.8479 49.7363 59.8044 49.7137L56.6908 47.7913C56.6048 47.7456 56.5619 47.6311 56.5619 47.5396V43.6946C56.5619 43.5802 56.6048 43.4887 56.6908 43.4429L59.8044 41.5203C59.8479 41.4977 59.8956 41.486 59.944 41.486C59.9924 41.486 60.0402 41.4977 60.0837 41.5203L63.1973 43.4429C63.2833 43.4885 63.3262 43.6031 63.3262 43.6946V47.5396ZM94.463 43.6031C94.8068 43.3972 95 43.0081 95 42.596V39.8726C95 39.4607 94.7852 39.0716 94.463 38.8656L85.4226 33.2814C85.2558 33.1802 85.0671 33.127 84.8751 33.127C84.6831 33.127 84.4944 33.1802 84.3276 33.2814L75.2227 38.8884C74.879 39.0944 74.6644 39.4835 74.6644 39.8956V51.087C74.6644 51.4989 74.879 51.888 75.2227 52.0939L84.2631 57.5867C84.6068 57.7926 85.0146 57.7926 85.3368 57.5867L90.8125 54.3371C90.9843 54.2454 91.0917 54.0395 91.0917 53.8335C91.0917 53.6276 90.9843 53.4217 90.8125 53.33L81.6647 47.7228C81.493 47.6085 81.3856 47.4254 81.3856 47.2194V43.7178C81.3856 43.5118 81.493 43.3059 81.6647 43.2142L84.5208 41.4748C84.6044 41.4187 84.7012 41.389 84.7999 41.389C84.8987 41.389 84.9955 41.4187 85.0791 41.4748L87.935 43.2142C88.1069 43.3287 88.2143 43.5116 88.2143 43.7178V46.4642C88.2143 46.6701 88.3217 46.876 88.4933 46.9675C88.6652 47.082 88.8798 47.082 89.0517 46.9675L94.463 43.6031Z" fill="#333333"/>
<path d="M84.7355 43.0768C84.7674 43.0544 84.8047 43.0425 84.8428 43.0425C84.8809 43.0425 84.9183 43.0544 84.9501 43.0768L86.6895 44.1524C86.754 44.198 86.7969 44.2667 86.7969 44.3584V46.5097C86.7969 46.6012 86.754 46.6699 86.6895 46.7156L84.9501 47.7913C84.9183 47.8136 84.8809 47.8255 84.8428 47.8255C84.8047 47.8255 84.7674 47.8136 84.7355 47.7913L82.9961 46.7156C82.9316 46.6699 82.8887 46.6012 82.8887 46.5097V44.3584C82.8887 44.2667 82.9316 44.198 82.9961 44.1524L84.7355 43.0768Z" fill="#539E43"/>
<path d="M35.6251 33.3273C35.4582 33.2261 35.2695 33.1729 35.0775 33.1729C34.8855 33.1729 34.6968 33.2261 34.53 33.3273L25.4896 38.8884C25.1459 39.0943 24.9526 39.4834 24.9526 39.8953V51.0412C24.9526 51.4531 25.1674 51.8422 25.4896 52.0481L34.53 57.6096C34.6968 57.7108 34.8855 57.7641 35.0775 57.7641C35.2695 57.7641 35.4582 57.7108 35.6251 57.6096L44.6657 52.0481C45.0092 51.8422 45.2026 51.4531 45.2026 51.0412V39.8955C45.2026 39.4836 44.9876 39.0945 44.6657 38.8886L35.6251 33.3273Z" fill="url(#paint0_linear_1_129)"/>
<mask id="mask0_1_129" style="mask-type:luminance" maskUnits="userSpaceOnUse" x="24" y="33" width="22" height="25">
<path d="M35.6251 33.3273C35.4582 33.2261 35.2695 33.1729 35.0775 33.1729C34.8855 33.1729 34.6968 33.2261 34.53 33.3273L25.4896 38.8884C25.1459 39.0943 24.9526 39.4834 24.9526 39.8953V51.0412C24.9526 51.4531 25.1674 51.8422 25.4896 52.0481L34.53 57.6096C34.6968 57.7108 34.8855 57.7641 35.0775 57.7641C35.2695 57.7641 35.4582 57.7108 35.6251 57.6096L44.6657 52.0481C45.0092 51.8422 45.2026 51.4531 45.2026 51.0412V39.8955C45.2026 39.4836 44.9876 39.0945 44.6657 38.8886L35.6251 33.3273Z" fill="white"/>
</mask>
<g mask="url(#mask0_1_129)">
<path d="M44.6876 38.8881L35.6043 33.3269C35.5151 33.2788 35.4215 33.2405 35.3251 33.2124L25.1465 51.7964C25.2308 51.9061 25.3326 51.9991 25.4473 52.0711L34.5306 57.6325C34.7883 57.7927 35.0889 57.8385 35.368 57.7468L44.924 39.1172C44.8595 39.0257 44.7735 38.9566 44.6876 38.8881Z" fill="url(#paint1_linear_1_129)"/>
</g>
<mask id="mask1_1_129" style="mask-type:luminance" maskUnits="userSpaceOnUse" x="24" y="33" width="22" height="25">
<path d="M35.6251 33.3273C35.4582 33.2261 35.2695 33.1729 35.0775 33.1729C34.8855 33.1729 34.6968 33.2261 34.53 33.3273L25.4896 38.8884C25.1459 39.0943 24.9526 39.4834 24.9526 39.8953V51.0412C24.9526 51.4531 25.1674 51.8422 25.4896 52.0481L34.53 57.6096C34.6968 57.7108 34.8855 57.7641 35.0775 57.7641C35.2695 57.7641 35.4582 57.7108 35.6251 57.6096L44.6657 52.0481C45.0092 51.8422 45.2026 51.4531 45.2026 51.0412V39.8955C45.2026 39.4836 44.9876 39.0945 44.6657 38.8886L35.6251 33.3273Z" fill="white"/>
</mask>
<g mask="url(#mask1_1_129)">
<path fill-rule="evenodd" clip-rule="evenodd" d="M44.7079 52.0482C44.9656 51.888 45.1589 51.6134 45.2449 51.3159L35.2807 33.1898C35.023 33.144 34.7438 33.1668 34.5078 33.327L25.4888 38.8657L35.2162 57.7699C35.3577 57.7452 35.4951 57.699 35.6243 57.6327L44.7078 52.0484L44.7079 52.0482Z" fill="url(#paint2_linear_1_129)"/>
<path fill-rule="evenodd" clip-rule="evenodd" d="M44.7077 52.0482L35.6458 57.6097C35.5179 57.6792 35.38 57.7256 35.2378 57.7469L35.4097 58.0903L45.4593 51.8882V51.7508L45.2016 51.293C45.1587 51.6134 44.9655 51.888 44.7077 52.0482Z" fill="url(#paint3_linear_1_129)"/>
<path fill-rule="evenodd" clip-rule="evenodd" d="M44.7077 52.0482L35.6458 57.6097C35.5179 57.6792 35.38 57.7256 35.2378 57.7469L35.4097 58.0903L45.4593 51.8882V51.7508L45.2016 51.293C45.1587 51.6134 44.9655 51.888 44.7077 52.0482Z" fill="url(#paint4_linear_1_129)"/>
</g>
<defs>
<linearGradient id="paint0_linear_1_129" x1="1405.76" y1="463.199" x2="322.604" y2="2060.09" gradientUnits="userSpaceOnUse">
<stop stop-color="#41873F"/>
<stop offset="0.3288" stop-color="#418B3D"/>
<stop offset="0.6352" stop-color="#419637"/>
<stop offset="0.9319" stop-color="#3FA92D"/>
<stop offset="1" stop-color="#3FAE2A"/>
</linearGradient>
<linearGradient id="paint1_linear_1_129" x1="881.057" y1="1389.33" x2="3432.32" y2="88.7797" gradientUnits="userSpaceOnUse">
<stop offset="0.1376" stop-color="#41873F"/>
<stop offset="0.4032" stop-color="#54A044"/>
<stop offset="0.7136" stop-color="#66B848"/>
<stop offset="0.9081" stop-color="#6CC04A"/>
</linearGradient>
<linearGradient id="paint2_linear_1_129" x1="-61.2209" y1="1263.14" x2="2030.72" y2="1263.14" gradientUnits="userSpaceOnUse">
<stop offset="0.09192" stop-color="#6CC04A"/>
<stop offset="0.2864" stop-color="#66B848"/>
<stop offset="0.5968" stop-color="#54A044"/>
<stop offset="0.8624" stop-color="#41873F"/>
</linearGradient>
<linearGradient id="paint3_linear_1_129" x1="-1026.38" y1="393.028" x2="1065.54" y2="393.028" gradientUnits="userSpaceOnUse">
<stop offset="0.09192" stop-color="#6CC04A"/>
<stop offset="0.2864" stop-color="#66B848"/>
<stop offset="0.5968" stop-color="#54A044"/>
<stop offset="0.8624" stop-color="#41873F"/>
</linearGradient>
<linearGradient id="paint4_linear_1_129" x1="1370.3" y1="-1383.41" x2="771.17" y2="1562.22" gradientUnits="userSpaceOnUse">
<stop stop-color="#41873F"/>
<stop offset="0.3288" stop-color="#418B3D"/>
<stop offset="0.6352" stop-color="#419637"/>
<stop offset="0.9319" stop-color="#3FA92D"/>
<stop offset="1" stop-color="#3FAE2A"/>
</linearGradient>
</defs>
</svg>
