<svg width="187" height="187" viewBox="0 0 187 187" fill="none" xmlns="http://www.w3.org/2000/svg">
<mask id="mask0_34_37" style="mask-type:luminance" maskUnits="userSpaceOnUse" x="2" y="46" width="182" height="95">
<path d="M2.95703 46.3889H183.638V140.165H2.95703V46.3889Z" fill="white"/>
</mask>
<g mask="url(#mask0_34_37)">
<mask id="mask1_34_37" style="mask-type:luminance" maskUnits="userSpaceOnUse" x="2" y="46" width="182" height="95">
<path d="M2.95703 93.2918C2.95703 119.172 43.4046 140.154 93.2952 140.154C143.186 140.154 183.633 119.172 183.633 93.2918C183.633 67.4113 143.186 46.4304 93.2952 46.4304C43.4046 46.4304 2.95703 67.4123 2.95703 93.2918Z" fill="white"/>
</mask>
<g mask="url(#mask1_34_37)">
<mask id="mask2_34_37" style="mask-type:luminance" maskUnits="userSpaceOnUse" x="2" y="46" width="182" height="95">
<path d="M2.95703 93.2905C2.95703 119.171 43.4046 140.152 93.2952 140.152C143.186 140.152 183.633 119.171 183.633 93.2905C183.633 67.41 143.186 46.429 93.2952 46.429C43.4046 46.429 2.95703 67.4109 2.95703 93.2905Z" fill="white"/>
</mask>
<g mask="url(#mask2_34_37)">
<path d="M2.95703 46.429V140.152H183.633V46.429H2.95703Z" fill="url(#paint0_radial_34_37)"/>
</g>
</g>
</g>
<path d="M93.2955 136.674C141.239 136.674 180.105 117.252 180.105 93.2924C180.105 69.3334 141.239 49.9109 93.2955 49.9109C45.3525 49.9109 6.48633 69.3334 6.48633 93.2924C6.48633 117.252 45.3525 136.674 93.2955 136.674Z" fill="#777BB3"/>
<path d="M52.0377 98.6681C55.9802 98.6681 58.9228 97.9515 60.7845 96.5387C62.6268 95.14 63.8991 92.7167 64.5662 89.3363C65.188 86.1765 64.951 83.9704 63.8622 82.7801C62.7492 81.5641 60.3424 80.9471 56.7089 80.9471H50.4092L46.9166 98.6686H52.0377V98.6681ZM31.4332 120.499C31.1408 120.499 30.8634 120.37 30.6773 120.147C30.584 120.035 30.5194 119.91 30.4834 119.77C30.4475 119.63 30.4436 119.489 30.4713 119.348L39.7273 72.3863C39.738 72.3314 39.7535 72.2785 39.7739 72.2265C39.7938 72.1745 39.8181 72.1244 39.8473 72.0764C39.8759 72.0287 39.909 71.9836 39.9454 71.9413C39.9823 71.899 40.0227 71.8602 40.0659 71.8252C40.1096 71.7897 40.1558 71.7581 40.2053 71.7304C40.2544 71.7032 40.3054 71.6799 40.3584 71.661C40.4113 71.6425 40.4657 71.6279 40.5216 71.6187C40.577 71.609 40.6334 71.6041 40.6897 71.6041H60.6388C66.9084 71.6041 71.5747 73.2797 74.5082 76.5941C77.4566 79.9225 78.3676 84.5757 77.2142 90.4231C76.7449 92.8056 75.938 95.0181 74.8162 96.9998C73.692 98.9829 72.2073 100.818 70.4019 102.455C68.24 104.449 65.7934 105.896 63.1364 106.747C60.5212 107.587 57.1636 108.014 53.1551 108.014H45.0772L42.7705 119.717C42.7593 119.771 42.7443 119.825 42.7239 119.877C42.7039 119.929 42.6797 119.979 42.6505 120.027C42.6218 120.075 42.5888 120.12 42.5524 120.162C42.5154 120.204 42.4751 120.243 42.4319 120.278C42.3882 120.314 42.342 120.345 42.2929 120.373C42.2439 120.4 42.1929 120.423 42.1394 120.442C42.0865 120.461 42.032 120.475 41.9767 120.485C41.9208 120.494 41.8649 120.499 41.8086 120.499H31.4308L31.4332 120.499Z" fill="black"/>
<path d="M51.2176 81.9148H56.7094C61.0944 81.9148 62.618 82.8642 63.1354 83.4292C63.9944 84.3683 64.1561 86.348 63.6042 89.1542C62.9843 92.2955 61.8349 94.523 60.1874 95.7736C58.5006 97.0542 55.7586 97.7033 52.0386 97.7033H48.1078L51.219 81.9148H51.2176ZM60.6378 70.6378H40.6897C40.577 70.6378 40.4648 70.6475 40.354 70.6665C40.2427 70.6854 40.1339 70.7141 40.0275 70.7515C39.9211 70.7894 39.8191 70.8355 39.721 70.8904C39.6228 70.9458 39.53 71.0085 39.4431 71.0794C39.3561 71.1504 39.2754 71.2281 39.2021 71.3121C39.1287 71.3967 39.0631 71.487 39.0053 71.5828C38.9475 71.6785 38.8984 71.7781 38.8586 71.882C38.8183 71.986 38.7872 72.0929 38.7658 72.2022L29.5098 119.167C29.4962 119.237 29.4865 119.307 29.4807 119.377C29.4748 119.448 29.4729 119.519 29.4748 119.59C29.4768 119.662 29.4831 119.732 29.4928 119.803C29.503 119.873 29.5166 119.943 29.5346 120.011C29.5521 120.08 29.574 120.148 29.5992 120.215C29.6245 120.281 29.6531 120.346 29.6857 120.409C29.7182 120.473 29.7547 120.534 29.794 120.594C29.8334 120.653 29.8761 120.71 29.9218 120.765C29.9675 120.82 30.0165 120.872 30.068 120.921C30.1195 120.971 30.174 121.018 30.2308 121.061C30.2876 121.105 30.3469 121.145 30.4081 121.183C30.4698 121.22 30.533 121.254 30.5981 121.284C30.6632 121.314 30.7297 121.341 30.7982 121.364C30.8663 121.387 30.9357 121.406 31.0057 121.422C31.0761 121.437 31.1471 121.449 31.219 121.457C31.2904 121.465 31.3623 121.468 31.4342 121.468H41.8086C41.9213 121.468 42.0335 121.459 42.1447 121.44C42.256 121.421 42.3648 121.393 42.4707 121.355C42.5771 121.317 42.6792 121.271 42.7773 121.216C42.8754 121.161 42.9682 121.098 43.0552 121.027C43.1426 120.956 43.2228 120.879 43.2962 120.794C43.37 120.71 43.4356 120.62 43.4934 120.524C43.5512 120.428 43.5998 120.328 43.6401 120.224C43.6804 120.12 43.7115 120.014 43.7329 119.905L45.8856 108.983H53.1555C57.2666 108.983 60.7276 108.541 63.4415 107.67C66.2316 106.776 68.8002 105.259 71.0724 103.164C72.9516 101.459 74.5028 99.545 75.6727 97.4744C76.8425 95.4043 77.6889 93.0947 78.1781 90.6112C79.3922 84.4557 78.4059 79.5265 75.2476 75.9615C72.1198 72.431 67.2047 70.6407 60.6397 70.6407M45.7297 99.6393H52.0401C56.2226 99.6393 59.3382 98.8629 61.385 97.3083C63.4318 95.7541 64.813 93.1598 65.5305 89.5248C66.217 86.0347 65.9046 83.572 64.5929 82.1369C63.2812 80.7017 60.6523 79.9842 56.7118 79.9842H49.6037L45.7302 99.6388M60.6402 72.5738C66.6416 72.5738 71.0194 74.1265 73.7716 77.2329C76.5234 80.3388 77.3517 84.6748 76.2537 90.2419C75.8019 92.535 75.0377 94.6314 73.9616 96.5315C72.8855 98.431 71.4776 100.17 69.7393 101.746C67.6677 103.658 65.3668 105.019 62.8342 105.832C60.3021 106.645 57.0771 107.05 53.156 107.05H44.2702L41.8095 119.535H31.4356L40.6921 72.5772H60.6417" fill="white"/>
<path d="M101 108.014C100.707 108.014 100.43 107.885 100.244 107.662C100.058 107.439 99.9816 107.146 100.038 106.863L104.132 86.0838C104.522 84.108 104.425 82.6894 103.862 82.0899C103.517 81.7235 102.48 81.1095 99.4156 81.1095H91.998L86.8502 107.231C86.8395 107.286 86.824 107.339 86.804 107.391C86.7836 107.443 86.7593 107.493 86.7307 107.541C86.7015 107.589 86.669 107.634 86.6321 107.676C86.5951 107.718 86.5553 107.757 86.5116 107.793C86.4678 107.828 86.4217 107.86 86.3726 107.887C86.3236 107.915 86.2725 107.938 86.2191 107.957C86.1661 107.975 86.1117 107.99 86.0564 107.999C86.0005 108.009 85.9446 108.014 85.8878 108.014H75.5955C75.5231 108.014 75.4517 108.006 75.3813 107.99C75.3108 107.975 75.2428 107.951 75.1777 107.921C75.1121 107.891 75.0509 107.854 74.9936 107.81C74.9367 107.766 74.8852 107.717 74.8391 107.662C74.7934 107.607 74.7541 107.548 74.721 107.484C74.6885 107.42 74.6632 107.354 74.6457 107.285C74.6277 107.216 74.618 107.145 74.6156 107.075C74.6137 107.003 74.6195 106.933 74.6331 106.863L83.8891 59.9011C83.9002 59.8462 83.9153 59.7933 83.9357 59.7413C83.9556 59.6888 83.9804 59.6393 84.0091 59.5912C84.0382 59.5436 84.0708 59.4984 84.1077 59.4561C84.1441 59.4139 84.1845 59.375 84.2282 59.3395C84.2714 59.3045 84.3181 59.273 84.3671 59.2453C84.4162 59.2181 84.4672 59.1947 84.5202 59.1758C84.5736 59.1569 84.628 59.1428 84.6834 59.1335C84.7393 59.1238 84.7951 59.119 84.8515 59.119H95.1442C95.2161 59.119 95.2876 59.1267 95.3585 59.1423C95.4289 59.1578 95.497 59.1811 95.5621 59.2113C95.6276 59.2419 95.6889 59.2788 95.7457 59.3225C95.803 59.3662 95.8545 59.4158 95.9002 59.4707C95.9463 59.5256 95.9857 59.5849 96.0182 59.6485C96.0508 59.7122 96.0761 59.7787 96.094 59.8477C96.112 59.9167 96.1217 59.9866 96.1237 60.0581C96.1261 60.1295 96.1203 60.1999 96.1062 60.2699L93.8728 71.6047H101.853C107.931 71.6047 112.053 72.6614 114.455 74.8355C116.905 77.0538 117.666 80.5998 116.725 85.3784L112.418 107.232C112.408 107.286 112.392 107.34 112.372 107.392C112.352 107.444 112.327 107.494 112.298 107.542C112.27 107.589 112.237 107.635 112.2 107.677C112.163 107.719 112.123 107.758 112.08 107.794C112.036 107.829 111.99 107.86 111.941 107.888C111.892 107.915 111.841 107.938 111.787 107.957C111.734 107.976 111.68 107.99 111.624 108C111.569 108.009 111.512 108.014 111.456 108.014H101L101 108.014Z" fill="black"/>
<path d="M95.1451 58.1511H84.8528C84.7396 58.1511 84.6274 58.1603 84.5162 58.1797C84.4049 58.1987 84.2966 58.2268 84.1902 58.2647C84.0838 58.3022 83.9818 58.3483 83.8836 58.4037C83.7855 58.4586 83.6927 58.5213 83.6057 58.5922C83.5183 58.6631 83.4381 58.7409 83.3648 58.8254C83.2909 58.9099 83.2253 58.9998 83.1675 59.0955C83.1102 59.1912 83.0611 59.2913 83.0208 59.3953C82.9805 59.4992 82.9499 59.6061 82.928 59.7154L73.672 106.676C73.6584 106.746 73.6487 106.817 73.6429 106.887C73.6365 106.958 73.6351 107.029 73.637 107.1C73.639 107.172 73.6448 107.242 73.655 107.312C73.6647 107.383 73.6788 107.452 73.6963 107.521C73.7143 107.59 73.7357 107.658 73.7609 107.724C73.7862 107.791 73.8153 107.856 73.8479 107.919C73.8804 107.983 73.9164 108.044 73.9562 108.104C73.9956 108.163 74.0383 108.22 74.084 108.275C74.1297 108.33 74.1787 108.382 74.2302 108.432C74.2817 108.481 74.3361 108.528 74.393 108.571C74.4498 108.615 74.5091 108.655 74.5703 108.693C74.632 108.73 74.6952 108.764 74.7603 108.794C74.8254 108.824 74.8924 108.851 74.9604 108.874C75.0284 108.897 75.0979 108.916 75.1684 108.932C75.2383 108.947 75.3093 108.959 75.3812 108.967C75.4526 108.974 75.5245 108.978 75.5964 108.978H85.8891C86.0018 108.978 86.1141 108.969 86.2253 108.95C86.3366 108.931 86.4454 108.903 86.5513 108.865C86.6577 108.827 86.7602 108.781 86.8583 108.726C86.9565 108.671 87.0488 108.608 87.1362 108.537C87.2232 108.466 87.3034 108.389 87.3772 108.304C87.4506 108.219 87.5162 108.13 87.574 108.034C87.6318 107.938 87.6808 107.838 87.7207 107.734C87.761 107.63 87.7921 107.523 87.8135 107.414L92.8073 82.0742H99.417C102.477 82.0742 103.119 82.7189 103.144 82.7466C103.33 82.9428 103.574 83.8547 103.171 85.8976L99.0769 106.676C99.0633 106.746 99.0536 106.817 99.0478 106.887C99.0419 106.958 99.04 107.029 99.0419 107.1C99.0439 107.172 99.0502 107.242 99.0599 107.312C99.0701 107.383 99.0837 107.452 99.1017 107.521C99.1192 107.59 99.1405 107.658 99.1663 107.724C99.1916 107.791 99.2202 107.856 99.2528 107.919C99.2853 107.983 99.3218 108.044 99.3611 108.104C99.4005 108.163 99.4432 108.22 99.4889 108.275C99.5346 108.33 99.5836 108.382 99.6351 108.432C99.6871 108.481 99.741 108.528 99.7979 108.571C99.8547 108.615 99.914 108.655 99.9757 108.693C100.037 108.73 100.1 108.764 100.165 108.794C100.231 108.824 100.297 108.851 100.365 108.874C100.433 108.897 100.503 108.916 100.573 108.932C100.644 108.947 100.715 108.959 100.786 108.967C100.857 108.974 100.929 108.978 101.002 108.978H111.457C111.57 108.978 111.682 108.969 111.793 108.95C111.905 108.931 112.014 108.903 112.12 108.865C112.226 108.827 112.328 108.781 112.426 108.726C112.525 108.671 112.617 108.608 112.704 108.537C112.792 108.466 112.872 108.389 112.945 108.304C113.019 108.219 113.085 108.13 113.142 108.034C113.2 107.938 113.249 107.838 113.289 107.734C113.33 107.63 113.36 107.523 113.382 107.414L117.688 85.5605C118.699 80.4311 117.835 76.5829 115.12 74.1222C112.53 71.7766 108.191 70.6359 101.854 70.6359H95.0635L97.0704 60.4529C97.0845 60.383 97.0942 60.3125 97.1001 60.2416C97.1059 60.1711 97.1078 60.1002 97.1059 60.0288C97.104 59.9579 97.0976 59.8874 97.0879 59.817C97.0777 59.7465 97.0641 59.677 97.0461 59.6081C97.0287 59.5391 97.0068 59.4715 96.9815 59.405C96.9563 59.3384 96.9276 59.2733 96.8951 59.2097C96.862 59.1465 96.8261 59.0848 96.7867 59.0255C96.7474 58.9663 96.7046 58.909 96.6589 58.8541C96.6128 58.7992 96.5642 58.7472 96.5127 58.6976C96.4607 58.6481 96.4068 58.6014 96.3495 58.5577C96.2926 58.514 96.2338 58.4736 96.1721 58.4367C96.1109 58.3993 96.0473 58.3653 95.9822 58.3352C95.9171 58.3051 95.8505 58.2783 95.7825 58.255C95.714 58.2322 95.645 58.2128 95.5746 58.1972C95.5041 58.1817 95.4332 58.17 95.3618 58.1622C95.2899 58.1545 95.218 58.1506 95.1461 58.1506M95.1461 60.0837L92.6858 72.5694H101.855C107.624 72.5694 111.603 73.5625 113.794 75.5456C115.985 77.5293 116.64 80.7464 115.765 85.1922L111.458 107.045H101.003L105.097 86.2669C105.563 83.9033 105.391 82.2909 104.582 81.4314C103.773 80.5715 102.052 80.1411 99.4184 80.1411H91.1909L85.8891 107.045H75.5969L84.8528 60.0837H95.1451" fill="white"/>
<path d="M133.011 98.6691C136.953 98.6691 139.896 97.9525 141.758 96.5397C143.6 95.141 144.872 92.7182 145.54 89.3373C146.161 86.1775 145.924 83.9714 144.836 82.7811C143.722 81.565 141.315 80.948 137.682 80.948H131.383L127.889 98.6696H133.011L133.011 98.6691ZM112.406 120.499C112.113 120.499 111.836 120.37 111.65 120.147C111.556 120.035 111.492 119.91 111.456 119.77C111.42 119.63 111.415 119.489 111.444 119.348L120.7 72.3863C120.71 72.3314 120.726 72.2785 120.746 72.2265C120.766 72.174 120.791 72.1244 120.82 72.0764C120.848 72.0287 120.881 71.9836 120.918 71.9413C120.955 71.899 120.995 71.8602 121.038 71.8247C121.082 71.7892 121.128 71.7581 121.177 71.7304C121.226 71.7027 121.278 71.6799 121.331 71.661C121.384 71.642 121.439 71.6279 121.494 71.6187C121.55 71.609 121.606 71.6041 121.662 71.6041H141.611C147.881 71.6041 152.547 73.2797 155.481 76.5941C158.43 79.9225 159.339 84.5752 158.187 90.4231C157.717 92.8056 156.91 95.0181 155.788 96.9998C154.664 98.9829 153.179 100.818 151.374 102.455C149.212 104.449 146.765 105.896 144.108 106.747C141.493 107.587 138.135 108.014 134.127 108.014H126.043L123.737 119.717C123.726 119.771 123.711 119.825 123.691 119.877C123.671 119.929 123.646 119.979 123.618 120.027C123.588 120.075 123.556 120.12 123.519 120.162C123.482 120.204 123.442 120.243 123.398 120.279C123.355 120.314 123.309 120.346 123.259 120.373C123.21 120.401 123.159 120.424 123.106 120.442C123.053 120.461 122.999 120.475 122.943 120.485C122.887 120.494 122.831 120.499 122.775 120.499H112.401L112.406 120.499Z" fill="black"/>
<path d="M132.191 81.9148H137.683C142.068 81.9148 143.592 82.8642 144.109 83.4292C144.968 84.3683 145.13 86.348 144.578 89.1537C143.958 92.295 142.808 94.523 141.161 95.7736C139.474 97.0542 136.732 97.7033 133.012 97.7033H129.08L132.191 81.9148ZM141.611 70.6378H121.662C121.549 70.6378 121.437 70.6475 121.326 70.6665C121.215 70.6854 121.106 70.7141 121 70.7515C120.893 70.7894 120.791 70.8355 120.693 70.8904C120.595 70.9458 120.502 71.0085 120.415 71.0794C120.328 71.1504 120.248 71.2281 120.174 71.3121C120.101 71.3967 120.035 71.487 119.977 71.5828C119.92 71.6785 119.871 71.7781 119.83 71.882C119.79 71.986 119.759 72.0929 119.738 72.2022L110.481 119.167C110.467 119.237 110.458 119.307 110.452 119.377C110.446 119.448 110.444 119.519 110.446 119.59C110.448 119.662 110.454 119.732 110.464 119.803C110.474 119.873 110.488 119.943 110.506 120.011C110.523 120.08 110.545 120.148 110.57 120.215C110.596 120.281 110.624 120.346 110.657 120.409C110.689 120.473 110.725 120.534 110.765 120.594C110.805 120.653 110.847 120.71 110.893 120.765C110.939 120.82 110.988 120.872 111.039 120.921C111.091 120.971 111.145 121.018 111.202 121.061C111.259 121.105 111.318 121.145 111.379 121.183C111.441 121.22 111.504 121.254 111.569 121.284C111.634 121.314 111.701 121.341 111.769 121.364C111.837 121.387 111.906 121.406 111.977 121.422C112.047 121.437 112.118 121.449 112.19 121.457C112.262 121.465 112.333 121.468 112.405 121.468H122.78C122.892 121.468 123.005 121.459 123.116 121.44C123.227 121.421 123.336 121.393 123.442 121.355C123.548 121.317 123.65 121.271 123.748 121.216C123.847 121.161 123.939 121.098 124.026 121.027C124.114 120.956 124.194 120.879 124.267 120.794C124.341 120.71 124.407 120.62 124.465 120.524C124.522 120.428 124.571 120.328 124.611 120.224C124.652 120.12 124.683 120.014 124.704 119.905L126.856 108.983H134.126C138.237 108.983 141.698 108.541 144.412 107.67C147.203 106.776 149.771 105.259 152.044 103.163C153.923 101.459 155.471 99.545 156.643 97.4744C157.817 95.4043 158.66 93.0947 159.149 90.6112C160.363 84.4552 159.377 79.526 156.218 75.9615C153.091 72.431 148.176 70.6407 141.611 70.6407M126.701 99.6393H133.011C137.193 99.6393 140.309 98.8629 142.356 97.3083C144.402 95.7541 145.784 93.1598 146.501 89.5248C147.188 86.0347 146.876 83.572 145.564 82.1369C144.252 80.7017 141.623 79.9842 137.683 79.9842H130.575L126.701 99.6388M141.611 72.5738C147.612 72.5738 151.991 74.1265 154.742 77.2329C157.494 80.3388 158.322 84.6748 157.224 90.2419C156.773 92.535 156.008 94.6314 154.932 96.5315C153.857 98.431 152.449 100.17 150.71 101.746C148.639 103.658 146.338 105.019 143.805 105.832C141.273 106.645 138.048 107.05 134.127 107.05H125.241L122.781 119.535H112.406L121.662 72.5738H141.611" fill="white"/>
<defs>
<radialGradient id="paint0_radial_34_37" cx="0" cy="0" r="1" gradientUnits="userSpaceOnUse" gradientTransform="translate(57.1967 62.9034) scale(118.628 116.98)">
<stop stop-color="#AEB2D5"/>
<stop offset="0.25" stop-color="#AEB2D5"/>
<stop offset="0.296875" stop-color="#AEB2D5"/>
<stop offset="0.300781" stop-color="#ADB1D4"/>
<stop offset="0.304688" stop-color="#ACB0D4"/>
<stop offset="0.308594" stop-color="#ACB0D3"/>
<stop offset="0.3125" stop-color="#ABAFD2"/>
<stop offset="0.316406" stop-color="#AAAED2"/>
<stop offset="0.320312" stop-color="#A9ADD1"/>
<stop offset="0.324219" stop-color="#A8ACD1"/>
<stop offset="0.328125" stop-color="#A7ABD0"/>
<stop offset="0.332031" stop-color="#A6AACF"/>
<stop offset="0.335938" stop-color="#A5A9CF"/>
<stop offset="0.339844" stop-color="#A4A9CE"/>
<stop offset="0.34375" stop-color="#A4A8CD"/>
<stop offset="0.347656" stop-color="#A3A7CD"/>
<stop offset="0.351562" stop-color="#A2A6CC"/>
<stop offset="0.355469" stop-color="#A1A5CB"/>
<stop offset="0.359375" stop-color="#A0A4CB"/>
<stop offset="0.363281" stop-color="#9FA3CA"/>
<stop offset="0.367188" stop-color="#9EA2C9"/>
<stop offset="0.371094" stop-color="#9DA1C9"/>
<stop offset="0.375" stop-color="#9CA1C8"/>
<stop offset="0.378906" stop-color="#9CA0C7"/>
<stop offset="0.382812" stop-color="#9B9FC7"/>
<stop offset="0.386719" stop-color="#9A9EC6"/>
<stop offset="0.390625" stop-color="#999DC5"/>
<stop offset="0.394531" stop-color="#989CC5"/>
<stop offset="0.398438" stop-color="#979BC4"/>
<stop offset="0.402344" stop-color="#969AC3"/>
<stop offset="0.40625" stop-color="#9599C3"/>
<stop offset="0.410156" stop-color="#9499C2"/>
<stop offset="0.414062" stop-color="#9498C1"/>
<stop offset="0.417969" stop-color="#9397C1"/>
<stop offset="0.421875" stop-color="#9296C0"/>
<stop offset="0.425781" stop-color="#9195BF"/>
<stop offset="0.429688" stop-color="#9094BF"/>
<stop offset="0.433594" stop-color="#8F93BE"/>
<stop offset="0.4375" stop-color="#8E92BD"/>
<stop offset="0.441406" stop-color="#8D91BD"/>
<stop offset="0.445312" stop-color="#8D91BC"/>
<stop offset="0.449219" stop-color="#8C90BB"/>
<stop offset="0.453125" stop-color="#8B8FBB"/>
<stop offset="0.457031" stop-color="#8A8EBA"/>
<stop offset="0.460938" stop-color="#898DB9"/>
<stop offset="0.464844" stop-color="#888CB9"/>
<stop offset="0.46875" stop-color="#878BB8"/>
<stop offset="0.472656" stop-color="#868AB7"/>
<stop offset="0.476562" stop-color="#858AB7"/>
<stop offset="0.480469" stop-color="#8589B6"/>
<stop offset="0.484375" stop-color="#8488B5"/>
<stop offset="0.488281" stop-color="#8387B5"/>
<stop offset="0.492188" stop-color="#8286B4"/>
<stop offset="0.496094" stop-color="#8185B3"/>
<stop offset="0.5" stop-color="#8084B3"/>
<stop offset="0.503906" stop-color="#7F83B2"/>
<stop offset="0.507812" stop-color="#7E82B1"/>
<stop offset="0.511719" stop-color="#7D82B1"/>
<stop offset="0.515625" stop-color="#7D81B0"/>
<stop offset="0.519531" stop-color="#7C80B0"/>
<stop offset="0.523438" stop-color="#7B7FAF"/>
<stop offset="0.527344" stop-color="#7A7EAE"/>
<stop offset="0.53125" stop-color="#797DAE"/>
<stop offset="0.535156" stop-color="#787CAD"/>
<stop offset="0.539062" stop-color="#777BAC"/>
<stop offset="0.542969" stop-color="#767AAC"/>
<stop offset="0.546875" stop-color="#767AAB"/>
<stop offset="0.550781" stop-color="#7579AA"/>
<stop offset="0.554688" stop-color="#7478AA"/>
<stop offset="0.558594" stop-color="#7377A9"/>
<stop offset="0.5625" stop-color="#7276A8"/>
<stop offset="0.566406" stop-color="#7175A8"/>
<stop offset="0.570312" stop-color="#7074A7"/>
<stop offset="0.574219" stop-color="#6F73A6"/>
<stop offset="0.578125" stop-color="#6E73A6"/>
<stop offset="0.582031" stop-color="#6E72A5"/>
<stop offset="0.585938" stop-color="#6D71A4"/>
<stop offset="0.589844" stop-color="#6C70A4"/>
<stop offset="0.59375" stop-color="#6B6FA3"/>
<stop offset="0.597656" stop-color="#6A6EA2"/>
<stop offset="0.601562" stop-color="#696DA2"/>
<stop offset="0.605469" stop-color="#686CA1"/>
<stop offset="0.609375" stop-color="#676BA0"/>
<stop offset="0.613281" stop-color="#666BA0"/>
<stop offset="0.617188" stop-color="#666A9F"/>
<stop offset="0.621094" stop-color="#65699E"/>
<stop offset="0.625" stop-color="#64689E"/>
<stop offset="0.628906" stop-color="#63679D"/>
<stop offset="0.632812" stop-color="#62669C"/>
<stop offset="0.636719" stop-color="#61659C"/>
<stop offset="0.640625" stop-color="#60649B"/>
<stop offset="0.644531" stop-color="#5F639A"/>
<stop offset="0.648438" stop-color="#5E639A"/>
<stop offset="0.652344" stop-color="#5E6299"/>
<stop offset="0.65625" stop-color="#5D6198"/>
<stop offset="0.660156" stop-color="#5C6098"/>
<stop offset="0.664062" stop-color="#5B5F97"/>
<stop offset="0.667969" stop-color="#5A5E96"/>
<stop offset="0.671875" stop-color="#595D96"/>
<stop offset="0.675781" stop-color="#585C95"/>
<stop offset="0.679688" stop-color="#575B94"/>
<stop offset="0.683594" stop-color="#575B94"/>
<stop offset="0.6875" stop-color="#565A93"/>
<stop offset="0.691406" stop-color="#555992"/>
<stop offset="0.695312" stop-color="#545892"/>
<stop offset="0.699219" stop-color="#535791"/>
<stop offset="0.703125" stop-color="#525691"/>
<stop offset="0.707031" stop-color="#515590"/>
<stop offset="0.710938" stop-color="#50548F"/>
<stop offset="0.714844" stop-color="#4F548F"/>
<stop offset="0.71875" stop-color="#4F538E"/>
<stop offset="0.722656" stop-color="#4E528D"/>
<stop offset="0.726562" stop-color="#4D518D"/>
<stop offset="0.730469" stop-color="#4C508C"/>
<stop offset="0.734375" stop-color="#4B4F8B"/>
<stop offset="0.738281" stop-color="#4A4E8B"/>
<stop offset="0.742188" stop-color="#494D8A"/>
<stop offset="0.746094" stop-color="#484C89"/>
<stop offset="1" stop-color="#484C89"/>
</radialGradient>
</defs>
</svg>
