<svg width="100" height="100" viewBox="0 0 100 100" fill="none" xmlns="http://www.w3.org/2000/svg">
<g clip-path="url(#clip0_1_112)">
<path fill-rule="evenodd" clip-rule="evenodd" d="M49.9996 71.7418C73.6943 71.7418 92.9026 62.0072 92.9026 49.9998C92.9026 37.9924 73.6943 28.2578 49.9996 28.2578C26.3054 28.2578 7.09668 37.9924 7.09668 49.9998C7.09668 62.0072 26.3054 71.7418 49.9996 71.7418Z" fill="#6E81B6"/>
<path fill-rule="evenodd" clip-rule="evenodd" d="M58.6916 57.0277L60.8197 46.075C61.3001 43.603 60.9006 41.7592 59.6332 40.594C58.4052 39.4667 56.3207 38.9183 53.2609 38.9183H49.5754L50.6296 33.4917C50.6493 33.3907 50.6465 33.2866 50.6212 33.1869C50.596 33.0871 50.549 32.9942 50.4836 32.9147C50.4181 32.8353 50.336 32.7713 50.2429 32.7274C50.1498 32.6834 50.0482 32.6606 49.9453 32.6606H44.8585C44.5244 32.6606 44.2376 32.8977 44.1737 33.2256L41.9134 44.8533C41.7079 43.5449 41.2016 42.4201 40.3912 41.492C38.8992 39.7842 36.5392 38.9183 33.3762 38.9183H23.5171C23.183 38.9183 22.8961 39.1554 22.8322 39.4827L18.2581 63.0192C18.2181 63.2242 18.2716 63.4348 18.4044 63.5956C18.5367 63.757 18.7338 63.8498 18.9429 63.8498H24.0696C24.4037 63.8498 24.6906 63.6127 24.7544 63.2843L25.8609 57.5916H29.6772C31.6797 57.5916 33.3627 57.3748 34.6762 56.9473C36.0194 56.5105 37.2557 55.7697 38.3451 54.7497C39.2255 53.9409 39.9529 53.0351 40.5126 52.0582L39.599 56.7605C39.5591 56.9655 39.6125 57.1771 39.7453 57.3369C39.8776 57.4983 40.0753 57.5911 40.2838 57.5911H45.3706C45.7047 57.5911 45.9916 57.354 46.0554 57.0267L48.5658 44.1072H52.0562C53.5436 44.1072 53.9794 44.4035 54.0982 44.5306C54.2056 44.6468 54.4287 45.0561 54.1781 46.3463L52.1548 56.76C52.1354 56.861 52.1386 56.965 52.164 57.0646C52.1894 57.1642 52.2365 57.257 52.3019 57.3363C52.3673 57.4157 52.4494 57.4796 52.5424 57.5235C52.6353 57.5675 52.7368 57.5904 52.8396 57.5906H58.0073C58.169 57.5909 58.3258 57.5349 58.4506 57.4322C58.5755 57.3295 58.6607 57.1864 58.6916 57.0277ZM35.1084 47.9779C34.7888 49.6199 34.187 50.7908 33.3186 51.4585C32.4366 52.1386 31.026 52.4831 29.1257 52.4831H26.8534L28.4964 44.0279H31.4343C33.5925 44.0279 34.462 44.4891 34.8111 44.8756C35.2952 45.412 35.3979 46.4854 35.1084 47.9779ZM80.1182 41.492C78.6266 39.7842 76.2666 38.9183 73.1036 38.9183H63.2445C62.9099 38.9183 62.6235 39.1554 62.5597 39.4827L57.986 63.0192C57.9456 63.2242 57.999 63.4348 58.1318 63.5956C58.2646 63.7564 58.4623 63.8498 58.6698 63.8498H63.797C64.1316 63.8498 64.418 63.6127 64.4818 63.2843L65.5884 57.5916H69.4051C71.4082 57.5916 73.0896 57.3748 74.4037 56.9473C75.7473 56.5105 76.9836 55.7697 78.0726 54.7497C78.9815 53.915 79.7291 52.9765 80.2956 51.9633C80.8621 50.9501 81.2683 49.8202 81.5054 48.6041C82.088 45.605 81.6216 43.2123 80.1182 41.492ZM75.1269 47.9779C74.8068 49.6199 74.205 50.7908 73.3376 51.4585C72.4551 52.1386 71.0445 52.4831 69.1447 52.4831H66.8719L68.5144 44.0279H71.4528C73.611 44.0279 74.4804 44.4891 74.8301 44.8756C75.3131 45.412 75.4164 46.4854 75.1269 47.9779Z" fill="white"/>
<path fill-rule="evenodd" clip-rule="evenodd" d="M31.4343 43.3301C33.3819 43.3301 34.6804 43.6896 35.3294 44.4086C35.9779 45.1277 36.1325 46.3624 35.7932 48.1112C35.4384 49.9327 34.7556 51.2328 33.744 52.012C32.7324 52.7913 31.1926 53.1803 29.1257 53.1803H26.0068L27.9211 43.3301H31.4343ZM18.9424 63.152H24.0691L25.2856 56.8949H29.6772C31.6149 56.8949 33.2091 56.691 34.4604 56.2838C35.7118 55.8765 36.8495 55.1943 37.8731 54.2361C38.7322 53.447 39.4273 52.5754 39.9596 51.6229C40.4914 50.6704 40.8691 49.6199 41.0927 48.4708C41.6353 45.6807 41.226 43.5075 39.8657 41.9511C38.506 40.3942 36.3421 39.616 33.3762 39.616H23.5171L18.9424 63.152ZM44.858 33.3584H49.9448L48.7287 39.616H53.2609C56.1111 39.616 58.0789 40.1131 59.1611 41.1076C60.2433 42.1021 60.5675 43.714 60.1349 45.9422L58.0068 56.8949H52.8391L54.8624 46.4807C55.0922 45.2958 55.0082 44.488 54.6082 44.0569C54.2082 43.6263 53.3569 43.4105 52.0557 43.4105H47.9905L45.3701 56.8949H40.2834L44.858 33.3584ZM71.4528 43.3301C73.4004 43.3301 74.6984 43.6896 75.3479 44.4086C75.9964 45.1277 76.1505 46.3624 75.8112 48.1112C75.4574 49.9327 74.7746 51.2328 73.7625 52.012C72.7513 52.7913 71.2111 53.1803 69.1452 53.1803H66.0263L67.9401 43.3301H71.4528ZM58.9598 63.152H64.087L65.3031 56.8949H69.6946C71.6328 56.8949 73.2271 56.691 74.4784 56.2838C75.7297 55.8765 76.8674 55.1943 77.891 54.2361C78.7501 53.447 79.4453 52.5754 79.9771 51.6229C80.5088 50.6704 80.887 49.6199 81.1111 48.4708C81.6533 45.6807 81.2439 43.5075 79.8842 41.9511C78.5234 40.3942 76.36 39.616 73.3941 39.616H63.535L58.9598 63.152Z" fill="black"/>
</g>
<defs>
<clipPath id="clip0_1_112">
<rect width="100" height="100" fill="white"/>
</clipPath>
</defs>
</svg>
