<svg width="187" height="187" viewBox="0 0 187 187" fill="none" xmlns="http://www.w3.org/2000/svg">
<mask id="mask0_34_26" style="mask-type:luminance" maskUnits="userSpaceOnUse" x="7" y="7" width="123" height="132">
<path d="M7.58643 7.63226H129.471V138.429H7.58643V7.63226Z" fill="white"/>
</mask>
<g mask="url(#mask0_34_26)">
<path d="M95.523 7.6326C88.513 7.65495 83.6533 8.27243 77.7792 9.28635C60.4327 12.3058 57.2724 18.6473 57.2724 30.3334V48.1939H97.8443V57.2079H36.1209C24.2376 57.2079 13.8374 62.8051 10.5421 76.2222C6.81869 91.622 6.65157 101.267 10.5421 117.347C13.4949 129.34 20.0002 138.331 31.8874 138.331H48.2608V115.328C48.2608 101.961 60.3695 88.7556 74.2452 88.7556H106.865C118.239 88.7556 129.405 80.3639 129.405 69.0291V30.3334C129.405 19.341 121.475 11.1208 110.39 9.27761C110.665 9.2504 102.474 7.60539 95.523 7.6326ZM73.055 25.6597C76.756 25.6597 79.8172 28.7107 79.8172 32.4292C79.8172 36.1832 76.756 39.1803 73.055 39.1803C69.2815 39.1803 66.2927 36.1876 66.2927 32.4292C66.2927 28.7243 69.2815 25.6597 73.055 25.6597Z" fill="#0277BD"/>
</g>
<mask id="mask1_34_26" style="mask-type:luminance" maskUnits="userSpaceOnUse" x="57" y="48" width="123" height="131">
<path d="M57.2109 48.1329H179.095V178.891H57.2109V48.1329Z" fill="white"/>
</mask>
<g mask="url(#mask1_34_26)">
<path d="M91.1546 178.892C98.1646 178.869 103.024 178.252 108.898 177.238C126.245 174.218 129.405 167.877 129.405 156.191V138.33H88.8333V129.317H150.562C162.445 129.317 172.845 123.719 176.14 110.302C179.864 94.9022 180.03 85.2576 176.14 69.1772C173.183 57.1845 166.678 48.1933 154.79 48.1933H138.417V71.1963C138.417 84.5638 126.309 97.7686 112.433 97.7686H79.8124C68.4387 97.7686 57.2725 106.16 57.2725 117.495V156.191C57.2725 167.183 65.2021 175.403 76.2873 177.247C76.0123 177.274 84.2033 178.919 91.1546 178.892ZM113.627 160.864C109.926 160.864 106.865 157.813 106.865 154.095C106.865 150.341 109.926 147.344 113.627 147.344C117.4 147.344 120.389 150.337 120.389 154.095C120.389 157.8 117.396 160.864 113.627 160.864Z" fill="#FFC107"/>
</g>
</svg>
