<svg width="100" height="100" viewBox="0 0 100 100" fill="none" xmlns="http://www.w3.org/2000/svg">
<mask id="mask0_1_103" style="mask-type:luminance" maskUnits="userSpaceOnUse" x="0" y="0" width="100" height="99">
<path d="M0 0H100V98.1818H0V0Z" fill="white"/>
</mask>
<g mask="url(#mask0_1_103)">
<path fill-rule="evenodd" clip-rule="evenodd" d="M50 21C37.4667 21 29.6333 27.4444 26.5 40.3333C31.2 33.8889 36.6833 31.4722 42.95 33.0833C46.5255 34.0017 49.0809 36.6707 51.9096 39.6227C56.5173 44.4327 61.851 50 73.5 50C86.0333 50 93.8667 43.5556 97 30.6667C92.3 37.1111 86.8167 39.5278 80.55 37.9167C76.9745 36.9983 74.4191 34.3293 71.5904 31.3773C66.9827 26.5673 61.649 21 50 21ZM26.5 50C13.9667 50 6.13333 56.4444 3 69.3333C7.7 62.8889 13.1833 60.4722 19.45 62.0833C23.0255 63.0035 25.5809 65.6707 28.4096 68.6227C33.0173 73.4327 38.351 79 50 79C62.5333 79 70.3667 72.5556 73.5 59.6667C68.8 66.1111 63.3167 68.5278 57.05 66.9167C53.4745 65.9983 50.9191 63.3293 48.0904 60.3773C43.4827 55.5673 38.149 50 26.5 50Z" fill="#38BDF8"/>
</g>
</svg>
