<svg width="324" height="199" viewBox="0 0 324 199" fill="none" xmlns="http://www.w3.org/2000/svg">
<path d="M275.283 1H186.413H175.176C166.282 1 159.11 8.28122 159.244 17.1743C159.375 25.8795 166.47 32.8676 175.176 32.8676H186.894L275.052 30.5012C276.235 30.4694 277.417 30.5344 278.565 30.8189C281.937 31.6541 289.261 34.1139 291.739 40.1103C295 48 294.502 51.2415 295 57.5C295.498 63.7585 290.948 81.0595 276.83 79.2206H179C167.954 79.2206 159 88.1749 159 99.2206V107.708V184.293C159 191.863 165.137 198 172.707 198C180.277 198 186.413 191.863 186.413 184.293V128.205C186.413 116.967 195.669 107.93 206.905 108.121C229.74 108.509 265.01 108.874 276.83 107.708C294.834 105.932 322.511 86.4 323 53.6299C319.317 19.912 304.851 5.80809 278.364 1.25129C277.349 1.07664 276.313 1 275.283 1Z" fill="#51BFFE" stroke="#51BFFE"/>
<rect x="107" y="1" width="27" height="197" rx="13.5" fill="#51BFFE"/>
</svg>
