<svg width="217" height="199" viewBox="0 0 217 199" fill="none" xmlns="http://www.w3.org/2000/svg">
<path d="M168.283 1H79.413H68.176C59.282 1 52.11 8.28122 52.244 17.1743C52.375 25.8795 59.47 32.8676 68.176 32.8676H79.894L168.052 30.5012C169.235 30.4694 170.417 30.5344 171.565 30.8189C174.937 31.6541 182.261 34.1139 184.739 40.1103C188 48 187.502 51.2415 188 57.5C188.498 63.7585 183.948 81.0595 169.83 79.2206H72C60.954 79.2206 52 88.1749 52 99.2206V107.708V184.293C52 191.863 58.137 198 65.707 198C73.277 198 79.413 191.863 79.413 184.293V128.205C79.413 116.967 88.669 107.93 99.905 108.121C122.74 108.509 158.01 108.874 169.83 107.708C187.834 105.932 215.511 86.4 216 53.6299C212.317 19.912 197.851 5.80809 171.364 1.25129C170.349 1.07664 169.313 1 168.283 1Z" fill="#51BFFE" stroke="#51BFFE"/>
<path d="M27 14.5C27 7.04416 20.9558 1 13.5 1C6.04416 1 0 7.04416 0 14.5V184.5C0 191.956 6.04416 198 13.5 198C20.9558 198 27 191.956 27 184.5V14.5Z" fill="#51BFFE"/>
</svg>
