<svg width="73" height="145" viewBox="0 0 73 145" fill="none" xmlns="http://www.w3.org/2000/svg">
<path fill-rule="evenodd" clip-rule="evenodd" d="M0 0V37.2411V99.1094V109.2C5.82747 109.754 11.1788 110.15 16.0978 110.376V145H24.6272V110.597C55.3962 110.695 66.3862 102.155 72.4399 80.8492C69.8041 53.9468 63.2318 47.5163 44.0886 48.6537H16.0978V99.3135C14.4367 99.2624 12.7158 99.1939 10.9321 99.1094V37.2411V0H0ZM26.4291 63.1897V100.07C48.0069 98.7479 55.9611 95.2393 61.3877 83.1317C61.4975 73.1717 61.3278 67.9525 58.1441 63.1897C45.7587 54.8945 38.8146 53.8884 26.4291 63.1897Z" fill="#0085FF"/>
</svg>
